<svg width="20" height="19" viewBox="0 0 20 19" fill="none" xmlns="http://www.w3.org/2000/svg">
<path d="M13.5903 18.7827V11.5604H16.0091L16.371 8.75273H13.5903V6.96114C13.5903 6.14829 13.8163 5.59361 14.9817 5.59361H16.4684V3.08249C15.7487 3.00612 15.0253 2.96909 14.3015 2.97155C12.1585 2.97155 10.6914 4.27999 10.6914 6.68328V8.75273H8.26737V11.5604H10.6914V18.7827H1.76873C1.49375 18.7827 1.23004 18.6735 1.0356 18.479C0.841167 18.2846 0.731934 18.0209 0.731934 17.7459V1.15716C0.731934 0.882182 0.841167 0.618469 1.0356 0.424032C1.23004 0.229595 1.49375 0.120361 1.76873 0.120361H18.3575C18.6324 0.120361 18.8962 0.229595 19.0906 0.424032C19.285 0.618469 19.3943 0.882182 19.3943 1.15716V17.7459C19.3943 18.0209 19.285 18.2846 19.0906 18.479C18.8962 18.6735 18.6324 18.7827 18.3575 18.7827H13.5903Z" fill="#F6F6F6"/>
</svg>
