<svg width="20" height="19" viewBox="0 0 20 19" fill="none" xmlns="http://www.w3.org/2000/svg">
<path d="M18.3953 0.120361H1.22599C0.813081 0.120361 0.479492 0.453951 0.479492 0.866855V18.0362C0.479492 18.4491 0.813081 18.7827 1.22599 18.7827H18.3953C18.8082 18.7827 19.1418 18.4491 19.1418 18.0362V0.866855C19.1418 0.453951 18.8082 0.120361 18.3953 0.120361ZM14.8332 6.87846C14.8402 6.9881 14.8402 7.10241 14.8402 7.21438C14.8402 10.6389 12.2321 14.5837 7.4662 14.5837C5.99654 14.5837 4.63419 14.1568 3.48646 13.4219C3.69641 13.4453 3.89703 13.4546 4.11165 13.4546C5.3247 13.4546 6.43978 13.044 7.32857 12.3489C6.19017 12.3255 5.23372 11.579 4.90713 10.5526C5.30604 10.6109 5.66529 10.6109 6.07586 10.506C5.48969 10.3869 4.96283 10.0685 4.58478 9.60499C4.20673 9.14146 4.00081 8.56135 4.00201 7.96321V7.93055C4.34493 8.12417 4.7485 8.24314 5.17074 8.25947C4.81578 8.02291 4.52469 7.70243 4.32326 7.32643C4.12183 6.95042 4.01629 6.53053 4.016 6.10397C4.016 5.62108 4.14198 5.18019 4.36826 4.79761C5.01888 5.59854 5.83076 6.2536 6.75112 6.72022C7.67149 7.18683 8.67974 7.45455 9.71035 7.50598C9.3441 5.74472 10.6598 4.31939 12.2414 4.31939C12.9879 4.31939 13.6598 4.63198 14.1333 5.13586C14.7189 5.02622 15.2787 4.80694 15.7779 4.51301C15.5843 5.11254 15.1784 5.61875 14.6395 5.93834C15.1621 5.88236 15.666 5.73772 16.1325 5.53477C15.7803 6.05265 15.3394 6.51221 14.8332 6.87846Z" fill="#F6F6F6"/>
</svg>
