<svg width="20" height="19" viewBox="0 0 20 19" fill="none" xmlns="http://www.w3.org/2000/svg">
<path d="M17.7756 0.120361H2.20046C1.34941 0.120361 0.605835 0.732719 0.605835 1.57377V17.1835C0.605835 18.0291 1.34941 18.7827 2.20046 18.7827H17.771C18.6267 18.7827 19.2682 18.0241 19.2682 17.1835V1.57377C19.2732 0.732719 18.6267 0.120361 17.7756 0.120361ZM6.39074 15.6763H3.7172V7.36368H6.39074V15.6763ZM5.14645 6.09981H5.12729C4.27165 6.09981 3.71761 5.46287 3.71761 4.66556C3.71761 3.85366 4.28623 3.23172 5.16103 3.23172C6.03583 3.23172 6.57112 3.84908 6.59028 4.66556C6.58986 5.46287 6.03583 6.09981 5.14645 6.09981ZM16.1618 15.6763H13.4883V11.1311C13.4883 10.0422 13.0992 9.29823 12.1319 9.29823C11.3929 9.29823 10.9555 9.79812 10.761 10.2851C10.6881 10.46 10.6685 10.6983 10.6685 10.9416V15.6763H7.99495V7.36368H10.6685V8.52049C11.0576 7.96646 11.6654 7.16914 13.0796 7.16914C14.8346 7.16914 16.1622 8.32596 16.1622 10.82L16.1618 15.6763Z" fill="#F6F6F6"/>
</svg>
