<svg width="20" height="19" viewBox="0 0 20 19" fill="none" xmlns="http://www.w3.org/2000/svg">
<path d="M13.1753 9.45153C13.1753 10.0421 13.0002 10.6194 12.6721 11.1104C12.344 11.6015 11.8776 11.9842 11.332 12.2102C10.7864 12.4362 10.186 12.4953 9.60679 12.3801C9.02757 12.2649 8.49552 11.9805 8.07792 11.5629C7.66032 11.1453 7.37594 10.6133 7.26072 10.0341C7.14551 9.45484 7.20464 8.85446 7.43064 8.30885C7.65664 7.76323 8.03936 7.29689 8.5304 6.96878C9.02145 6.64068 9.59875 6.46556 10.1893 6.46556C10.9805 6.46802 11.7386 6.7834 12.298 7.34285C12.8575 7.90229 13.1728 8.66036 13.1753 9.45153ZM19.5205 5.34582V13.5572C19.5205 14.9431 18.97 16.2722 17.99 17.2522C17.01 18.2322 15.6809 18.7827 14.295 18.7827H6.08361C4.69773 18.7827 3.36862 18.2322 2.38865 17.2522C1.40869 16.2722 0.858154 14.9431 0.858154 13.5572V5.34582C0.858154 3.95994 1.40869 2.63082 2.38865 1.65086C3.36862 0.670899 4.69773 0.120361 6.08361 0.120361H14.295C15.6809 0.120361 17.01 0.670899 17.99 1.65086C18.97 2.63082 19.5205 3.95994 19.5205 5.34582ZM14.6683 9.45153C14.6683 8.56567 14.4056 7.69971 13.9134 6.96315C13.4213 6.22659 12.7218 5.65251 11.9033 5.31351C11.0849 4.97451 10.1844 4.88581 9.31552 5.05863C8.44669 5.23145 7.64861 5.65803 7.02222 6.28443C6.39582 6.91082 5.96925 7.70889 5.79642 8.57773C5.6236 9.44656 5.7123 10.3471 6.0513 11.1656C6.3903 11.984 6.96438 12.6835 7.70094 13.1756C8.43751 13.6678 9.30347 13.9305 10.1893 13.9305C11.3772 13.9305 12.5165 13.4586 13.3564 12.6186C14.1964 11.7787 14.6683 10.6394 14.6683 9.45153ZM16.1613 4.59932C16.1613 4.37786 16.0956 4.16137 15.9726 3.97723C15.8495 3.79309 15.6746 3.64957 15.47 3.56482C15.2654 3.48007 15.0403 3.45789 14.8231 3.5011C14.6059 3.5443 14.4064 3.65095 14.2498 3.80755C14.0932 3.96414 13.9865 4.16366 13.9433 4.38087C13.9001 4.59808 13.9223 4.82322 14.007 5.02783C14.0918 5.23243 14.2353 5.40731 14.4194 5.53035C14.6036 5.65339 14.8201 5.71906 15.0415 5.71906C15.3385 5.71906 15.6233 5.60109 15.8333 5.3911C16.0433 5.18111 16.1613 4.8963 16.1613 4.59932Z" fill="#F6F6F6"/>
</svg>
